Coordinates
version=1
nRows=43
nColumns=12
inDegrees=yes

Units are S.I. units (second, meters, Newtons, ...)
Angles are in degrees

endheader
time	SC_y	SC_z	SC_x	AC_y	AC_z	AC_x	GH_y	GH_z	GH_yy	EL_x	PS_y
       0.0              -35.54          4.826          68.47          32.64         -2.248         -16.02         -50.65          12.27          25.45          62.66          141.0
   0.01214              -35.54          4.827          68.46          32.64         -2.247         -16.02         -50.65          12.28          25.44          62.67          141.0
   0.02428              -35.55          4.828          68.46          32.64         -2.247         -16.01         -50.65          12.28          25.42          62.67          141.0
   0.03642              -35.55          4.828          68.45          32.64         -2.246         -16.01         -50.64          12.28           25.4          62.67          141.0
   0.04856              -35.55          4.829          68.44          32.65         -2.246         -16.01         -50.64          12.29          25.38          62.68          141.0
   0.06069              -35.56           4.83          68.43          32.65         -2.245         -16.01         -50.64          12.29          25.36          62.68          141.0
   0.07283              -35.56          4.831          68.42          32.65         -2.244         -16.01         -50.63           12.3          25.34          62.69          141.0
   0.08497              -35.56          4.832          68.42          32.65         -2.244          -16.0         -50.63           12.3          25.32           62.7          141.0
   0.09711              -35.57          4.834          68.41          32.66         -2.243          -16.0         -50.62          12.31          25.29           62.7          141.0
    0.1092              -35.57          4.835           68.4          32.66         -2.242          -16.0         -50.62          12.31          25.27          62.71          141.0
    0.1214              -35.58          4.836          68.38          32.66         -2.241         -15.99         -50.61          12.32          25.24          62.72          141.0
    0.1335              -35.58          4.838          68.37          32.67          -2.24         -15.99         -50.61          12.33          25.21          62.72          141.0
    0.1457              -35.59          4.839          68.36          32.67         -2.239         -15.99          -50.6          12.33          25.17          62.73          141.0
    0.1578               -35.6          4.841          68.34          32.67         -2.238         -15.98          -50.6          12.34          25.14          62.74          141.0
    0.1699               -35.6          4.843          68.33          32.68         -2.237         -15.98         -50.59          12.35           25.1          62.75          141.0
    0.1821              -35.61          4.845          68.31          32.68         -2.236         -15.97         -50.58          12.36          25.06          62.76          141.0
    0.1942              -35.62          4.847           68.3          32.69         -2.234         -15.97         -50.57          12.37          25.01          62.77          141.0
    0.2064              -35.63          4.849          68.28          32.69         -2.233         -15.96         -50.57          12.38          24.96          62.79          141.0
    0.2185              -35.64          4.852          68.25           32.7         -2.231         -15.95         -50.56          12.39          24.91           62.8          141.0
    0.2306              -35.65          4.855          68.23          32.71         -2.229         -15.95         -50.55           12.4          24.85          62.81          141.0
    0.2428              -35.66          4.858          68.21          32.71         -2.227         -15.94         -50.53          12.42          24.78          62.83          141.0
    0.2549              -35.67          4.861          68.18          32.72         -2.225         -15.93         -50.52          12.44          24.71          62.85          141.0
    0.2671              -35.69          4.865          68.15          32.73         -2.223         -15.92         -50.51          12.45          24.63          62.87          141.0
    0.2792               -35.7          4.869          68.11          32.74          -2.22         -15.91         -50.49          12.47          24.54          62.89          141.0
    0.2913              -35.72          4.874          68.07          32.75         -2.217          -15.9         -50.47          12.49          24.44          62.92          141.0
    0.3035              -35.74          4.879          68.03          32.76         -2.214         -15.89         -50.46          12.52          24.33          62.94          141.0
    0.3156              -35.76          4.885          67.98          32.78          -2.21         -15.87         -50.43          12.54          24.21          62.97          141.0
    0.3277              -35.78          4.892          67.93          32.79         -2.206         -15.86         -50.41          12.57          24.07          63.01          141.0
    0.3399              -35.81          4.899          67.87          32.81         -2.201         -15.84         -50.38          12.61          23.91          63.05          141.0
     0.352              -35.84          4.907           67.8          32.83         -2.195         -15.82         -50.35          12.65          23.73          63.09          141.0
    0.3642              -35.88          4.917          67.72          32.85         -2.189          -15.8         -50.32          12.69          23.53          63.14          141.0
    0.3763              -35.92          4.928          67.63          32.88         -2.182         -15.77         -50.28          12.74           23.3           63.2          141.0
    0.3884              -35.97          4.941          67.52          32.91         -2.174         -15.74         -50.23           12.8          23.03          63.27          141.0
    0.4006              -36.02          4.955           67.4          32.94         -2.164          -15.7         -50.17          12.87          22.72          63.35          141.0
    0.4127              -36.09          4.973          67.26          32.98         -2.153         -15.66         -50.11          12.95          22.35          63.44          141.0
    0.4249              -36.16          4.993          67.09          33.03          -2.14         -15.61         -50.04          13.04          21.92          63.55          141.0
     0.437              -36.25          5.017          66.89          33.09         -2.125         -15.55         -49.95          13.16          21.41          63.67          141.0
    0.4491              -36.36          5.046          66.65          33.16         -2.106         -15.48         -49.84          13.29          20.79          63.83          141.0
    0.4613              -36.49          5.081          66.36          33.24         -2.083          -15.4         -49.71          13.45          20.05          64.01          141.1
    0.4734              -36.65          5.124          66.01          33.34         -2.056         -15.29         -49.55          13.65          19.14          64.24          141.1
    0.4856              -36.85          5.177          65.58          33.47         -2.021         -15.16         -49.36           13.9          18.02          64.52          141.1
    0.4977              -37.09          5.243          65.03          33.62         -1.979          -15.0         -49.12           14.2          16.63          64.87          141.1
    0.5098               -37.4          5.326          64.35          33.82         -1.925          -14.8         -48.81          14.59          14.87          65.31          141.1
